# xmcd
# 
# Track frame offsets:
#     183
#     25815
#     44053
#     63823
#     81315
#     98270
#     115230
#     135448
#     158015
# 
# Disc length: 2376
# 
# Revision: 7
# Processed by: cddbd v1.5.2PL0 Copyright (c) Steve Scherf et al.
# Submitted via: fre:ac v1.0.17
# 
DISCID=66094609
DTITLE=Peter Cetera - Solitude/Solitaire
DYEAR=1986
DGENRE=Pop
TTITLE0=Big Mistake
TTITLE1=They Don't Make 'Em Like They Used To
TTITLE2=Glory Of Love
TTITLE3=Queen Of The Masquerade Ball
TTITLE4=Daddy's Girl
TTITLE5=The Next Time I Fall
TTITLE6=Wake Up To Love
TTITLE7=Solitaire
TTITLE8=Only Love Knows Why
EXTD=
EXTT0=
EXTT1=
EXTT2=
EXTT3=
EXTT4=
EXTT5=
EXTT6=
EXTT7=
EXTT8=
PLAYORDER=
